<svg preserveAspectRatio="none" overflow="visible" style="display: block;" width="1292" height="24.3152" viewBox="0 0 1292 24.3152" fill="none" xmlns="http://www.w3.org/2000/svg">
<g id="Group">
<g id="Mask group">
<mask id="mask0_0_306" style="mask-type:luminance" maskUnits="userSpaceOnUse" x="0" y="0" width="1292" height="25">
<g id="Group_2">
<g id="Frame" clip-path="url(#clip0_0_306)">
<rect width="1292" height="24.3152" fill="white"/>
<g id="Group_3">
<g id="Mask group_2">
<g id="Group_4">
<path id="Vector" d="M646.01 24.3152C1002.79 24.3152 1292.02 18.872 1292.02 12.1576C1292.02 5.44314 1002.79 0 646.01 0C289.228 0 0 5.44314 0 12.1576C0 18.872 289.228 24.3152 646.01 24.3152Z" fill="url(#paint0_radial_0_306)" style="mix-blend-mode:multiply"/>
</g>
</g>
</g>
</g>
</g>
</mask>
<g mask="url(#mask0_0_306)">
<g id="Group_5">
<path id="Vector_2" d="M646.01 24.3152C1002.79 24.3152 1292.02 18.872 1292.02 12.1576C1292.02 5.44314 1002.79 0 646.01 0C289.228 0 0 5.44314 0 12.1576C0 18.872 289.228 24.3152 646.01 24.3152Z" fill="url(#paint1_radial_0_306)"/>
</g>
</g>
</g>
</g>
<defs>
<radialGradient id="paint0_radial_0_306" cx="0" cy="0" r="1" gradientUnits="userSpaceOnUse" gradientTransform="translate(640.178 10.1119) scale(645.928 12.1777)">
<stop stop-color="white"/>
<stop offset="0.23" stop-color="#FCFCFC"/>
<stop offset="0.36" stop-color="#F4F4F4"/>
<stop offset="0.47" stop-color="#E5E5E5"/>
<stop offset="0.57" stop-color="#D1D1D1"/>
<stop offset="0.66" stop-color="#B7B7B7"/>
<stop offset="0.75" stop-color="#969696"/>
<stop offset="0.83" stop-color="#707070"/>
<stop offset="0.9" stop-color="#434343"/>
<stop offset="0.97" stop-color="#121212"/>
<stop offset="1"/>
</radialGradient>
<radialGradient id="paint1_radial_0_306" cx="0" cy="0" r="1" gradientUnits="userSpaceOnUse" gradientTransform="translate(640.178 10.1119) scale(645.928 12.1777)">
<stop stop-color="white"/>
<stop offset="0.23" stop-color="#FCFCFC"/>
<stop offset="0.36" stop-color="#F4F4F4"/>
<stop offset="0.47" stop-color="#E5E5E5"/>
<stop offset="0.57" stop-color="#D1D1D1"/>
<stop offset="0.66" stop-color="#B7B7B7"/>
<stop offset="0.75" stop-color="#969696"/>
<stop offset="0.83" stop-color="#707070"/>
<stop offset="0.9" stop-color="#434343"/>
<stop offset="0.97" stop-color="#121212"/>
<stop offset="1"/>
</radialGradient>
<clipPath id="clip0_0_306">
<rect width="1292" height="24.3152" fill="white"/>
</clipPath>
</defs>
</svg>
