<?xml version="1.0" encoding="UTF-8"?>
<svg id="Camada_1" xmlns="http://www.w3.org/2000/svg" version="1.1" viewBox="0 0 1036.42 450">
  <!-- Generator: Adobe Illustrator 29.8.10, SVG Export Plug-In . SVG Version: 2.1.1 Build 2)  -->
  <defs>
    <style>
      .st0 {
        fill: none;
      }
    </style>
  </defs>
  <path d="M246.03,218.21c.65-.55,2.93-14.64,3.08-16.72,2.56-35.14-18.17-70.06-51.25-82.69-60.71-23.18-120.68,28.56-109.94,91.55,1.58,9.26,6.4,17.09,6.82,26.15-10.79-3.33-20.57-9.77-31.21-13.96-8.92-3.51-18.23-6.36-27.59-8.45-.44-20.73,8.07-41.28,18.77-58.66C85.21,105.93,127.63,59.58,159.31,10.35c6.76-6.96,14.36-6.68,20.72.45,30.82,46.86,68.15,90.96,98.77,137.73,8.31,12.69,14.99,25.09,18.99,39.87,1.22,4.5,5.2,20.67,4.01,24.13-.66,1.92-16.93,5.74-20.43,6.99-30.5,10.89-56.46,28.17-81.53,48.25-20.55-21.36-26.43-58.86-12.21-85.08,4.73-8.72,7.01-6.55,15.46-3.18,13.76,5.48,26.62,18.09,34.66,30.31,1.31,1.99,4.46,11.59,8.28,8.39ZM296.73,210.01c-1.21-17.97-7.75-35.16-16.71-50.52-34.51-45.54-65.38-96.24-100.58-140.99-5.19-6.6-9.32-12.94-17.08-4.09-31.14,48.1-71.69,93.32-102.17,141.43-7.25,11.45-14.01,25.44-17.17,38.65-.77,3.24-3.81,14.17-1.11,16.19,1.28.96,15.23,4.53,18.56,5.81,9.28,3.58,18.05,8.04,27.17,11.91-24.21-66.54,31.74-134.76,102.6-117.18,43.5,10.79,75.85,63.09,60.86,106.46-1.8,5.21-8.59,7.91-12.58,3.57-2.5-2.72-6.29-11.12-9.28-15.08-8.82-11.69-21.41-21.19-35.87-24.36-13.71,26.03-11.46,57.28,7.52,80.06,27.85-23.77,60.23-42.38,95.86-51.85Z"/>
  <path d="M152.48,366.51c1.36,2.67,2.47,15.08-.5,16.01-1.53.48-12.95-1.9-15.61-2.45-51.66-10.64-95.04-48.4-113.76-97.39-7.63-19.96-12.45-42.79-9.19-64,1.83-1.27,13.43-.57,14.83,1.55-3.03,71.89,52.17,138.82,124.23,146.27ZM23.64,223.31h-7.12c.34,26.6,6.2,51.7,18.77,75.1,22.97,42.75,65,72.21,113.26,79.11l-.94-6.65c-71.21-9.45-126.26-76.09-123.97-147.56Z"/>
  <path d="M325.15,218.39c3.82,2.38-2.06,36.61-3.4,42.48-14.48,63.49-71,116.16-136.68,121.31-1.52-1.11-1.55-14.24.02-15.34,65.24-7.89,118.2-63.55,123.94-128.81.35-3.95-.9-15.36.51-17.75,1.87-3.16,12.13-1.87,15.61-1.88ZM189.2,377.52c66.25-9.12,118.68-62.04,129.7-127.62.67-3.99,3.72-25.51,1.34-27.16l-6.11.58c1.73,71.69-52.85,137.17-123.96,147.56l-.96,6.64Z"/>
  <path d="M99.56,213.94c-5.08,5.23-6.68-7.53-6.89-10.37-2.27-30.53,9.74-58.43,36.29-74.41,29.26-17.6,69.42-14.1,91.67,12.37-11.93,8.23-22.75,16.6-32.18,27.85-36.07-5.48-63.68,7.5-84.38,36.37-1.42,1.98-3.35,6.98-4.51,8.18ZM214.58,140.14c-6.01-3.6-10.76-7.67-17.3-10.63-52.44-23.77-108.05,20.81-99.49,76.56l17.74-21.33c19.66-16.61,45.15-24.53,70.89-20.41,5.47-4.13,9.77-10.23,14.94-14.58,4.2-3.53,9.16-5.97,13.21-9.61Z"/>
  <path d="M162.56,173.89c3.6-.41,21.74-1.56,22.56,2.32-13.94,25.3-13.42,53.46-1.19,79.25,1.07,2.25,6.45,9.2,6.14,10.84-.66,3.51-15.48,5.52-18.67,5.7-29.98,1.7-59.8-15.35-71.33-43.25,8.16-28.14,32.71-51.51,62.48-54.86ZM178.02,178.68h-17.77c-8.33,0-27.61,11-34.04,16.72-5.63,5.01-21.44,26.01-20.83,33.09.28,3.28,6.78,12.32,9.16,15.13,16.56,19.6,44.79,27.76,69.58,21.28-16.81-25.99-18.62-58.01-6.09-86.22Z"/>
  <path d="M177,432.31h-16.25v-136.96c5.15-1.23,12.13-2.55,16.25,1.52v135.44ZM171.93,299.41h-7.11v128.84h7.11v-128.84Z"/>
  <path d="M484.68,323.18l-3.31,2.68-13.36.39c-7.36-1.73-1.44-44.98-1.24-52.88.25-9.63-2.21-18.02-1.23-27.2l24.86-1.59,17.26,49.67,17.19-49.73c8.17.58,19.57-3,25.79,2.79v75.87c-4.3,4.71-15.69,4.71-19.99,0v-38.93l-14.93,39.99-15.28.76-15.76-40.75v38.93ZM474.69,252.3v65.89h2v-59.9l7.7.29,2.29,6.68c2.85,3.18,2.08-1.91,1.59-3.54-2.62-8.71-3.9-10.89-13.58-9.42ZM540.66,252.3l-9.7.3-2.28,9.68,3.23-4.03h5.76s2.97,6.03,2.97,6.03l.03-11.98ZM510.39,312.46l-5.7-2.26c-.49,3.68-.13,5.87,3.01,7.97h2.96s-.27-5.71-.27-5.71Z"/>
  <path d="M533.65,116.53c28.3,3.78,38.69,36.44,17.03,54.91,13.19,11.71,7.34,31.81,13.94,46.91l-24.11-.85c-7.14-30.09.97-41.77-37.84-37.07v37.94h-23.99v-98.83l3-2.99c16.31,1.55,36.17-2.11,51.97,0ZM537.65,126.52c-13.35-2.68-34.65,1.98-48.97,0v83.86h5.99c1.47-1.38-1.51-31.14-.01-36.65.4-1.48,2.67-1.49,4-1.33.91-1.23-4.19-4.14-4.95-5.98-2.64-6.4-2.36-31.71,1.97-37.91h35.98c10.97,0,16.33,15.19,14.9,24.85-.23,1.55-7.19,14.16-.93,11.07,11.46-5.65,9.29-34.46-7.97-37.92ZM502.67,160.46h28.98c4.5,0,9.94-16.19,1.84-21.81-6.68-4.64-22.6-1.01-30.83-2.16v23.97ZM536.64,168.46l-9.97,2.01v1.95s9.96,2.02,9.96,2.02v-5.98ZM552.63,210.36c-3.08-11.4,1.86-29.38-11.96-33.93,3.93,10.95,7.03,22.14,5.99,33.95l5.98-.02Z"/>
  <path d="M744.54,150.48l-21.78-.23c1.3-24.57-47.78-12.42-28.09,1.12,14.3,9.83,48.67,4.06,53.4,30.51,9.37,52.38-88.33,52.23-83.5.53l23.92.09c-4.36,27.49,47.36,20.32,34.21,2.76-9.75-13.02-51.43-5.08-55.68-34.31-6.53-44.87,83.65-49.69,77.53-.47ZM734.53,142.48c-5.12-29.84-67.07-21.13-57.06,10.1,7.26,22.64,65.28,8.58,53.92,45.76-5.31,17.38-49.78,15.24-50.78-6.58l-6.02-1.34c4.4,33.81,75.64,27.54,63.07-10.13-5.98-17.92-56.81-10.77-56.8-34.81.01-18.47,27.03-22.34,40.42-14.71,5.98,3.41,6.51,11.01,13.25,11.7Z"/>
  <path d="M382.74,218.36v-99.83c17.43-2.61,66.54-6.97,76.8,10.14,5.71,9.52,5.22,28.05-4.79,34.79,15.24,9.11,16.83,36.74,3.8,47.78-1.61,1.37-13.73,7.13-14.85,7.13h-60.97ZM441.7,126.52c-12.95-2.79-34.92,2.06-48.97,0v83.86h44.97c7.82,0,18.21-7.64,20.14-15.85,4.51-19.24-12.2-26.46-11.13-23.1,12.7,11.97,3.71,36.95-13.01,36.95h-34.98v-41.93h36.98c1.01,0,4.19,3.17,6.99,1.99v-5.97c-2.16-.76-4.37,1.99-4.99,1.99h-38.98v-35.94h36.98c.51,0,8.08,4.33,8.9,5.09,7.4,6.83,2.75,16.55,3.09,24.85,11.71-7.75,6.38-29.27-5.99-31.94ZM406.71,156.48c45.25,6.5,44.61-26.15,0-19.99v19.99ZM406.72,198.39h30.98c1.49,0,4.54-4.89,4.97-7.06,4.17-21.52-22.2-16.44-35.96-16.91v23.97Z"/>
  <path d="M562.64,326.18v-81.86h48.97c4.67,0,12.69,8.94,14.03,13.92,3.67,13.56-5.52,20.76-4.74,24.74.68,3.47,9.75,7.3,9.72,18.25-.02,9.34-11.77,24.95-21.02,24.95h-46.97ZM570.63,252.3v65.89l3.96-.96c-3.61-18.49-1.23-38.7-1.96-57.96-.09-2.45,1.51-7.42-2-6.97ZM606.13,262.77c-4.53-4.4-19.17-1.8-25.51-2.49l.88,14.12c2.35,3.39,20.02,2.4,23.77.04,3.33-2.48,3.71-8.89.86-11.66ZM580.62,290.23l1.88,19.1c10.9,1.68,31.05,3.66,28.15-12.08-1.96-10.62-22.28-6.16-30.03-7.03ZM620.58,308.2v-13.96h-1.96v13.96h1.96Z"/>
  <path d="M740.54,244.32l19.59.42,30.38,45.51v-45.92h17.99v81.86c-4.74-.48-10.43.85-14.96-.04-9.32-1.81-25.26-40.77-35.01-47.88v47.92c-6.03-.56-13.73,2.23-17.99-2.99v-78.87ZM748.53,252.3v65.89h2v-57.9l7.98-.99c-2.99-4.46-3.65-8.28-9.98-7ZM800.5,318.19v-65.89h-2v52.91c0,6.42-11.01-1.98-9.97,3.96,4.11,3.91,4.76,10.57,11.97,9.02Z"/>
  <path d="M730.54,244.32v15.97h-38.98c-4.48,3.58-4.67,12.11,0,15.97h36.98v13.98h-36.98c-5.23,4.25-2.44,11.95-3,17.97h40.98c5.23,4.25,2.44,11.95,3,17.97h-61.97v-81.86h59.97ZM678.57,252.3v65.89h45.97v-2h-43.98l1.96-62.93-3.96-.96Z"/>
  <path d="M119.62,317.67l34,35.02.03,6.58c-24.06-1.71-48.89-12.26-67.52-27.42-4.68-3.81-10.53-8.48-12.72-14.17h46.21ZM118.6,322.74h-35.04c12.11,12.69,29.5,22.12,46.2,27.41,1.39.44,19.42,5.54,18.8,3.54l-29.96-30.95Z"/>
  <path d="M918.17,244.59l30.17,78.62c-21.8,14.7-20.95-12.59-27.87-16.03-3.23-1.61-15.14-1.57-19.14-1.08-9.74,1.19-9.78,12.16-13.14,19.81l-17.73.27c-4.05-4.17,26.29-70.46,28.22-81.62l19.49.03ZM912.43,252.31h-7.97s0,3.98,0,3.98h7.96s.01-3.98.01-3.98ZM916.43,292.22l-6.98-21.94c-3.28,2.5-8.61,20.33-7.01,21.94h13.99ZM930.41,304.2l-3.96-11.96c-1.87,6.35-1.95,8.47,3.96,11.96ZM891.94,299.73l-3.46-5.49-2,9.96,5.47-4.47Z"/>
  <path d="M460.7,326.17l-18.08-.91c-5.81-18.95-8.19-21.76-29.01-19.16-10.07,1.26-7.54,12.1-12.8,19.16l-18.07.91,29.95-80.89c5.82-1.4,16.11-3.03,19.86,2.2l28.16,78.69ZM426.41,252.59l-8.53-.31-1.14,6.01c8.05-7.47,5.92-.25,11.95,3.98l-2.28-9.68ZM428.72,292.23c.43-3.37-.5-6.41-1.37-9.6s-3.44-11.03-6.6-12.33l-6.02,21.94h13.99ZM444.68,306.2l-5.96-15.95-1.66,9.67,7.62,6.28Z"/>
  <path d="M263.34,317.67c1.84,1.78-6.16,8.77-7.64,10.12-18.93,17.12-46.02,29.52-71.58,31.48-1.11-6.57,1.16-9.16,5.05-13.73,8.25-9.66,19.45-18.26,27.96-27.87h46.21ZM253.18,322.75c-11.83-2.14-23.67-.1-35.53.52-8.59,9.23-19.26,17.92-26.94,27.87-.79,1.02-1.97,1.29-1.51,3.05,23.46-3.31,47.39-14.48,63.98-31.43Z"/>
  <path d="M664.57,218.35l-24.01-.95-7.74-19.81-36.01-.98-6.47,21.48-23.71.27,37.96-100.84c7.61-1.44,19.45-3.73,23.73,4.29l36.25,96.55ZM652.59,210.35l-30.97-81.85-12.73-1.7-30.25,83.56,6.02-1.33c2.7-7.97,2.67-21.56,12.85-22.73,5.5-.63,35.74-.61,39.12,1.08,5.49,1.79,8.09,28.96,15.96,22.97Z"/>
  <path d="M1008.38,218.35l-24.06-.9-9.18-20.78c-7.99.78-29.94-3.45-34.54,2.89-2.43,3.36-5.02,17.6-6.45,18.52l-23.7.27,37.89-100.9c6.48-1.08,19.89-3.27,23.89,2.25l36.15,98.65ZM966.22,126.72h-13.6s-30.18,83.64-30.18,83.64l6.03-1.31,9.22-22.36c9.52,1.05,37.25-3.18,43.86,1.57,7.37,5.3,3.79,24.06,14.83,22.11l-30.17-83.65Z"/>
  <path d="M152.63,345.06l-3.6-.97-27.88-28.96v-46.67l2.39-1.4,29.1,26.76v51.23ZM148.57,335.93v-40.07l-22.34-20.8v39.06c6.85,6.32,12.48,13.95,19.26,20.32,1,.94,1.45,1.84,3.08,1.49Z"/>
  <path d="M822.49,198.39h46.97c4.72,4.29,4.72,15.67,0,19.97h-70.96v-98.83l3.31-2.68c1.81-.57,3.73-.26,5.58-.42,4.96-.43,12.01-.98,15.09,3.1v78.87ZM812.5,126.52h-5.99c-1.45,19.76,2.3,39.27,2.08,59-.09,8.37-5.65,18.33.91,24.86h52.97c.28-4.68.67-3.53-2.98-4.01-13.47-1.79-32.51,6.46-46.99.02v-79.87Z"/>
  <path d="M215.6,266.94v49.2l-27.88,27.95-3.6.97v-51.23l25.9-24.85,5.58-2.03ZM188.18,336.94l23.36-23.84v-39.06l-23.36,22.83v40.07Z"/>
  <path d="M243.02,204.05c-2.18,2.23-8.57-8.04-10.13-9.67-10.21-10.69-22.32-18.67-36.59-22.81-2.67-3.6,23.56-23.26,28.18-24.16,4.18-.82,5.65,3.82,7.79,7.01,9.26,13.83,13.4,33.2,10.75,49.63ZM238.95,193.9c.03-14.79-5.05-29.54-13.68-41.5-8.3,4.11-16.04,9.84-21.85,17.14,14.44,3.71,25.1,14.51,35.54,24.36Z"/>
  <path d="M217.63,310.57v-47.18l22.36-16.25,2.02,1.03v40.58c-6.82,4.71-14.14,17.3-20.8,20.82-1.23.65-1.92,1.38-3.58.99ZM237.94,254.77c-5.64,2.23-10.79,6.62-15.23,10.65v36.02l15.23-14.71v-31.96Z"/>
  <path d="M94.74,247.67c2.3-2.38,21.5,13.41,24.38,15.73v46.67l-2.03,1.02-22.34-22.33v-41.09ZM115.05,302.45v-36.02l-15.23-11.67v32.97l15.23,14.71Z"/>
  <path d="M283.65,291.29c1.92,1.7-13.99,22.53-16.76,24.35h-46.21c.83-2.71,3.7-5.98,5.57-8.13,4.89-5.63,11.24-10.62,16.26-16.22h41.13ZM276.54,295.35h-30.98l-15.74,15.73c11.94,1.71,23.87-1.23,35.88-.68l10.83-15.05Z"/>
  <path d="M880.46,244.32v15.98c-1.68,1.69-20.87-3.14-23.99,2.98v62.89l-19.12-1.87-.86-64.03-22.12-.86c-3.32-2.33-2.93-12.81,1.12-15.1h64.96ZM846.48,257.3c3.8,14.04-2.83,44.89,0,60.9h2v-62.89c0-.42,2.99-2.27,2-2.97h-7.99c-.15,2.18,3.66,3.73,4,4.97Z"/>
  <path d="M117.08,315.64h-47.23c-5.96-7.12-13.63-15.09-15.74-24.35h40.12l22.85,24.35ZM92.2,295.35h-31.99c4.44,5.09,8.25,16.42,15.74,16.32,1.89-.02,3.81-1.06,5.19-1.01,8.48.32,17.16,1.66,25.78.91.46-1.76-.73-2.03-1.51-3.05-3.49-4.54-9.46-8.65-13.21-13.18Z"/>
  <path d="M952.42,244.32h18c3.9,21.76.3,42.16,0,63.89h36.98c4.66,3.99,4.66,13.98,0,17.97h-54.97v-81.86ZM962.41,316.2v-63.89h-2v65.89l11.98-.02v-1.96s-9.98-.02-9.98-.02Z"/>
  <path d="M244.04,246.15c.75-2.68,20.09-12.97,22.84-12.74.89.07,2.55.96,2.55,1.58v24.35c0,.76-1.84,3.7-2.5,4.61-1.33,1.83-18.59,19.12-19.83,19.76-1.79.92-1.92.16-3.06-1.03v-36.52ZM264.35,239.55l-15.23,7.61v27.9l15.23-14.71v-20.8Z"/>
  <path d="M782.51,218.36h-23.99v-98.83l3.31-2.68c1.81-.57,3.73-.26,5.58-.42,4.96-.43,12.01-.98,15.09,3.1v98.83ZM768.52,126.52v83.86h5.99c1.47-18.38-1.07-36.69-2.07-54.82-.46-8.32,1.11-18.09.09-26.07-.37-2.93-1.55-6.2-4-2.96Z"/>
  <path d="M41.41,261.87c-2.74-.83-5.12-17.72-5.46-20.93-.62-6.02-.98-13.75-.04-19.56,2.09-1.78,26.91,7.82,30.38,10.56v28.41l-1.52,1.52h-23.36ZM61.22,233.46l-21.32-7.1c-.43,10.6,1.5,21.2,4.05,31.45h17.27v-24.35Z"/>
  <path d="M904.45,218.36h-23.99v-98.83l3.31-2.68c1.81-.57,3.73-.26,5.58-.42,4.96-.43,12.01-.98,15.09,3.1v98.83ZM894.44,126.51l-5.98.02,2,83.83c2.56,3.38,3.63-.24,3.97-2.97,3.51-27.87-.32-53.06,0-80.89Z"/>
  <path d="M301.93,221.29v16.74c0,2.91-2.66,16.61-3.74,19.6-.39,1.09-1.91,4.24-2.86,4.24h-23.87v-29.93c8.96-5.11,20.05-9.73,30.47-10.65ZM275.52,234.99v22.83h16.76c4.76-9.58,4.08-20.98,5.58-31.45l-22.34,8.62Z"/>
  <path d="M92.7,284.19c-1.59.28-2.35-.16-3.6-.97-6.2-4-15.17-16.25-20.77-21.86v-27.39l2.07-1.09,22.3,12.25v39.06ZM72.39,239.55v19.78l14.74,15.72c2.3.42,1.4-1,1.51-2.51.63-8.65-1.11-17.28-1.51-25.9l-14.74-7.09Z"/>
  <path d="M248.1,288.25c-.28-1.59.16-2.35.97-3.6,4.18-6.45,15.95-14.03,20.87-20.75h24.38c2.49,1.59.68,4.66-.05,7.05-1.74,5.64-5.23,12.06-8.07,17.3h-38.09ZM289.74,267.96h-17.77l-15.74,16.23h27.42c1.34-5.66,5.95-10.21,6.09-16.23Z"/>
  <path d="M89.66,288.25h-38.09c-4.76-6.57-9.04-16.12-9.65-24.35h24.88l22.85,24.35ZM80.52,284.19l-15.74-16.23h-17.77c1.79,5.65,4.1,11.41,7.62,16.23h25.9Z"/>
  <path d="M638.59,326.18v-81.86l19.12,1.87.59,76.72-3,3-16.71.28ZM648.59,318.19v-65.89h-2v65.89h2Z"/>
  <path d="M798.5,84.61c-6.22,9.61-20.98,29.27-33.01,28.09-16.63-1.62,6.67-18.56,7.34-27.79l25.67-.31Z"/>
  <path d="M296.73,210.01c-35.62,9.46-68.01,28.08-95.86,51.85-18.98-22.78-21.24-54.03-7.52-80.06,14.47,3.17,27.05,12.68,35.87,24.36,2.99,3.96,6.77,12.36,9.28,15.08,3.99,4.34,10.78,1.64,12.58-3.57,14.99-43.37-17.37-95.67-60.86-106.46-70.86-17.58-126.81,50.64-102.6,117.18-9.12-3.87-17.89-8.34-27.17-11.91-3.33-1.28-17.28-4.85-18.56-5.81-2.7-2.02.34-12.95,1.11-16.19,3.16-13.2,9.92-27.2,17.17-38.65,30.48-48.11,71.04-93.33,102.17-141.43,7.76-8.85,11.88-2.51,17.08,4.09,35.2,44.75,66.07,95.45,100.58,140.99,8.97,15.37,15.51,32.55,16.71,50.52Z"/>
  <path d="M23.64,223.31c-2.29,71.47,52.76,138.1,123.97,147.56l.94,6.65c-48.26-6.9-90.29-36.36-113.26-79.11-12.57-23.4-18.44-48.5-18.77-75.1h7.12Z"/>
  <path d="M189.2,377.52l.96-6.64c71.12-10.39,125.69-75.86,123.96-147.56l6.11-.58c2.37,1.65-.67,23.17-1.34,27.16-11.02,65.57-63.45,118.5-129.7,127.62Z"/>
  <path d="M214.58,140.14c-4.06,3.64-9.01,6.08-13.21,9.61-5.18,4.35-9.47,10.45-14.94,14.58-25.75-4.12-51.24,3.79-70.89,20.41l-17.74,21.33c-8.56-55.74,47.05-100.32,99.49-76.56,6.54,2.97,11.29,7.04,17.3,10.63ZM183.85,133.23c-11.95,1.14-10.79,19.97.78,19.94,13.64-.04,12.12-21.17-.78-19.94Z"/>
  <path d="M178.02,178.68c-12.53,28.21-10.72,60.23,6.09,86.22-24.79,6.48-53.03-1.68-69.58-21.28-2.37-2.81-8.87-11.85-9.16-15.13-.61-7.08,15.21-28.08,20.83-33.09,6.43-5.72,25.71-16.72,34.04-16.72h17.77Z"/>
  <rect x="164.82" y="299.41" width="7.11" height="128.84"/>
  <path d="M474.69,252.3c9.68-1.47,10.96.71,13.58,9.42.49,1.63,1.26,6.72-1.59,3.54l-2.29-6.68-7.7-.29v59.9h-2v-65.89Z"/>
  <polygon points="540.66 252.3 540.63 264.27 537.66 258.25 531.9 258.25 528.68 262.28 530.96 252.59 540.66 252.3"/>
  <path d="M510.39,312.46l.27,5.72h-2.96c-3.14-2.11-3.49-4.3-3.01-7.98l5.7,2.26Z"/>
  <path d="M537.65,126.52c17.26,3.46,19.43,32.27,7.97,37.92-6.26,3.08.71-9.53.93-11.07,1.43-9.66-3.93-24.85-14.9-24.85h-35.98c-4.34,6.19-4.61,31.51-1.97,37.91.76,1.84,5.86,4.75,4.95,5.98-1.33-.17-3.6-.16-4,1.33-1.5,5.5,1.48,35.26.01,36.66h-5.99v-83.87c14.32,1.98,35.63-2.68,48.97,0Z"/>
  <path d="M552.63,210.36l-5.98.02c1.04-11.81-2.06-23-5.99-33.95,13.82,4.55,8.89,22.53,11.96,33.93Z"/>
  <polygon points="536.64 168.46 536.63 174.43 526.67 172.42 526.67 170.47 536.64 168.46"/>
  <path d="M734.53,142.48c-6.74-.7-7.27-8.3-13.25-11.7-13.39-7.63-40.41-3.76-40.42,14.71-.02,24.04,50.82,16.89,56.8,34.81,12.57,37.67-58.68,43.94-63.07,10.13l6.02,1.34c1,21.82,45.46,23.96,50.78,6.58,11.36-37.18-46.66-23.12-53.92-45.76-10.01-31.23,51.95-39.93,57.06-10.1Z"/>
  <path d="M441.7,126.52c12.37,2.66,17.7,24.19,5.99,31.94-.34-8.3,4.32-18.02-3.09-24.85-.82-.76-8.38-5.09-8.9-5.09h-36.98v35.94h38.98c.62,0,2.83-2.75,4.98-1.99v5.97c-2.79,1.18-5.97-1.99-6.98-1.99h-36.98v41.93h34.98c16.72,0,25.71-24.98,13.01-36.95-1.07-3.36,15.64,3.86,11.13,23.1-1.92,8.21-12.31,15.85-20.14,15.85h-44.97v-83.86c14.06,2.06,36.02-2.79,48.97,0Z"/>
  <path d="M570.63,252.3c3.51-.45,1.91,4.52,2,6.97.73,19.26-1.65,39.47,1.96,57.96l-3.96.96v-65.89Z"/>
  <rect x="618.63" y="294.24" width="1.96" height="13.96"/>
  <path d="M800.5,318.19c-7.21,1.55-7.86-5.1-11.97-9.02-1.04-5.94,9.97,2.46,9.97-3.96v-52.91h2v65.89Z"/>
  <path d="M748.53,252.3c6.33-1.28,6.99,2.54,9.98,7l-7.98.99v57.9h-2v-65.89Z"/>
  <polygon points="678.57 252.3 682.53 253.26 680.57 316.2 724.55 316.2 724.55 318.19 678.57 318.19 678.57 252.3"/>
  <path d="M118.6,322.74l29.96,30.95c.62,2-17.41-3.1-18.8-3.54-16.7-5.29-34.08-14.72-46.2-27.41h35.04Z"/>
  <path d="M930.41,304.2c-5.91-3.48-5.83-5.6-3.96-11.96l3.96,11.96Z"/>
  <polygon points="912.43 252.31 912.42 256.29 904.46 256.29 904.46 252.31 912.43 252.31"/>
  <polygon points="891.94 299.73 886.48 304.21 888.48 294.25 891.94 299.73"/>
  <path d="M426.41,252.59l2.28,9.68c-6.03-4.23-3.91-11.45-11.95-3.98l1.14-6.01,8.53.31Z"/>
  <polygon points="444.68 306.2 437.07 299.92 438.73 290.25 444.68 306.2"/>
  <path d="M253.18,322.75c-16.59,16.96-40.52,28.12-63.98,31.43-.46-1.76.73-2.03,1.51-3.05,7.68-9.95,18.35-18.65,26.94-27.87,11.86-.61,23.7-2.65,35.53-.52Z"/>
  <path d="M652.59,210.35c-7.87,5.99-10.47-21.18-15.96-22.97-3.39-1.69-33.62-1.71-39.12-1.08-10.18,1.17-10.14,14.76-12.85,22.73l-6.02,1.33,30.25-83.56,12.73,1.7,30.97,81.85ZM636.6,184.42c-4.25-9.29-11.63-44.6-16.94-49.96-8.02-8.1-10.86,3.33-13.09,8.99-4.97,12.63-9.84,27.72-11.95,40.97h41.98Z"/>
  <path d="M966.22,126.72l30.17,83.65c-11.03,1.96-7.45-16.81-14.83-22.11-6.62-4.75-34.34-.52-43.86-1.57l-9.22,22.36-6.03,1.31,30.18-83.63h13.6ZM980.4,184.42c-4.09-13.72-8.69-33.47-14.99-45.93-6.28-12.42-10.23-4.17-13.96,4.04-5.44,11.96-10.39,29.12-13.03,41.89h41.98Z"/>
  <path d="M148.57,335.93c-1.63.35-2.08-.55-3.08-1.49-6.79-6.37-12.41-14-19.26-20.32v-39.06l22.34,20.8v40.07Z"/>
  <path d="M812.5,126.52v79.87c14.49,6.44,33.53-1.81,46.99-.02,3.64.48,3.25-.67,2.98,4.01h-52.97c-6.56-6.53-1-16.49-.91-24.86.21-19.72-3.54-39.23-2.08-59.01h5.99Z"/>
  <polygon points="188.18 336.94 188.18 296.87 211.54 274.04 211.54 313.1 188.18 336.94"/>
  <path d="M238.95,193.9c-10.44-9.85-21.09-20.65-35.54-24.36,5.81-7.3,13.55-13.03,21.85-17.14,8.63,11.95,13.71,26.71,13.68,41.5Z"/>
  <path d="M237.94,254.77v31.96l-15.23,14.71v-36.02c4.44-4.04,9.6-8.43,15.23-10.65Z"/>
  <polygon points="115.05 302.45 99.81 287.74 99.81 254.77 115.05 266.44 115.05 302.45"/>
  <path d="M276.54,295.35l-10.83,15.05c-12.02-.55-23.95,2.39-35.88.68l15.74-15.73h30.98Z"/>
  <path d="M846.48,257.3c-.34-1.24-4.14-2.79-4-4.97h7.99c1,.7-2,2.55-2,2.97v62.89h-2c-2.83-16.01,3.8-46.86,0-60.9Z"/>
  <path d="M92.2,295.35c3.75,4.54,9.72,8.64,13.21,13.18.78,1.02,1.97,1.29,1.51,3.05-8.62.75-17.3-.59-25.78-.91-1.38-.05-3.3.98-5.19,1.01-7.49.09-11.3-11.23-15.74-16.32h31.99Z"/>
  <polygon points="962.41 316.2 972.4 316.22 972.4 318.17 960.42 318.19 960.42 252.3 962.41 252.3 962.41 316.2"/>
  <polygon points="264.35 239.55 264.35 260.35 249.12 275.06 249.12 247.16 264.35 239.55"/>
  <path d="M768.52,126.52c2.45-3.24,3.63.03,4,2.96,1.02,7.98-.55,17.75-.09,26.07,1.01,18.14,3.55,36.44,2.07,54.84h-5.99v-83.87Z"/>
  <path d="M61.22,233.46v24.35h-17.27c-2.55-10.25-4.48-20.84-4.05-31.45l21.32,7.1Z"/>
  <path d="M894.44,126.51c-.32,27.83,3.5,53.02,0,80.89-.34,2.73-1.41,6.34-3.97,2.97l-2-83.83,5.98-.02Z"/>
  <path d="M275.52,234.99l22.34-8.62c-1.5,10.47-.82,21.87-5.58,31.45h-16.76v-22.83Z"/>
  <path d="M72.39,239.55l14.74,7.09c.4,8.62,2.14,17.25,1.51,25.9-.11,1.51.79,2.94-1.51,2.51l-14.74-15.72v-19.78Z"/>
  <path d="M289.74,267.96c-.14,6.02-4.75,10.57-6.09,16.23h-27.42l15.74-16.23h17.77Z"/>
  <path d="M80.52,284.19h-25.9c-3.52-4.82-5.82-10.59-7.62-16.23h17.77l15.74,16.23Z"/>
  <rect x="646.59" y="252.3" width="2" height="65.89"/>
  <path class="st0" d="M183.85,133.23c12.9-1.23,14.42,19.9.78,19.94-11.56.03-12.73-18.8-.78-19.94Z"/>
  <path d="M181.32,146.98c4.6,4.63,11.63-3.76,6.44-7.96-4.95-4.01-10.51,3.87-6.44,7.96Z"/>
  <path d="M636.6,184.42h-41.98c2.11-13.24,6.98-28.34,11.95-40.97,2.23-5.66,5.07-17.09,13.09-8.99,5.31,5.36,12.69,40.67,16.94,49.96ZM624.59,176.42l-8.98-27.93-11,27.92h19.98Z"/>
  <path d="M980.4,184.42h-41.98c2.64-12.77,7.59-29.93,13.03-41.89,3.73-8.21,7.68-16.46,13.96-4.04,6.3,12.46,10.9,32.21,14.99,45.93ZM968.4,176.42c1.22-1.16-5.66-20.66-7.02-23.95-.79-1.9-.21-4.57-2.94-3.98l-10.02,27.92h19.98Z"/>
</svg>